<?xml version="1.0" encoding="utf-8"?>
<!-- Generator: Adobe Illustrator 16.0.0, SVG Export Plug-In . SVG Version: 6.00 Build 0)  -->
<!DOCTYPE svg PUBLIC "-//W3C//DTD SVG 1.1//EN" "http://www.w3.org/Graphics/SVG/1.1/DTD/svg11.dtd">
<svg version="1.1" id="Ellisse_1_1_" xmlns="http://www.w3.org/2000/svg" xmlns:xlink="http://www.w3.org/1999/xlink" x="0px"
	 y="0px" width="2780px" height="1559px" viewBox="0 0 2780 1559" enable-background="new 0 0 2780 1559" xml:space="preserve">
<g id="Ellisse_1">
	<g>
		<path fill-rule="evenodd" clip-rule="evenodd" d="M2756.376,862.7979c-19.1348-71.833-100.1943-120.7461-188-83
			c-45.2891,19.4697-67.4287,52.1592-96,88c-13.1152,16.4521-55.9668,45.1748-72,12c-12.2441-25.335,42.7617-97.6553,53-112
			c50.9697-71.4111,109.7266-136.7383,171-198c14.8652-14.8623,72.0596-61.0049,75-80c2.3252-15.0215-15.3877-29.9209-34-24
			c-6.333,4.666-12.667,9.334-19,14c-15.709,9.6191-37.1924,16.2744-58,20c-32.6104,5.8389-76.0234-20.1465-93-11
			c-13.5781,6.7939-15.8652,29.7432-22,44c-12.1963,28.3428-27.8965,56.6514-45,81c-75.5264,107.5244-168.6357,199.21-276,275
			c-28.3604,20.0205-87.6436,65.5898-134,57c-10.7363-15.0898-3.0459-37.0654,3-52c17.0508-42.1221,40.3174-73.8818,60-111
			c116.7627-19.4746,245.3096-75.9775,301-159c19.9854-29.7939,54.1455-119.3408,2-140c-19.1787-7.5977-43.9883,1.7109-57,7
			c-43.3311,17.6143-75.8721,41.8682-110,68c-71.1748,54.498-114.4814,134.7139-170,205c-19.1201,24.207-75.3076,54.2842-103,73
			c-20.5088,13.8613-58.8154,47.958-83,53c8.3203-24.5898,50.5449-66.6162,67-89c45.6621-61.3271,91.3379-122.6729,137-184
			c21.8213-28.9082,55.4414-57.9639,69-93c-0.333-1-0.667-2-1-3c-12.332-2.666-24.668-5.334-37-8
			c-19.7178,18.9639-26.3193,52.0449-48,69c-0.333,0-0.667,0-1,0c-21.3018-114.9316-158.6533-35.1621-204-1
			c-62.793,47.3047-112.7246,112.0537-161,174c-11.999,11.332-24.001,22.668-36,34c-44.6611,55.5654-102.752,108.21-160,151
			c-32.0205,23.9336-64.7666,49.8535-104,66c-9.4814,3.9023-37.8486,13.3232-46,2c-9.1914-12.7686,2.4619-38.9014,7-49
			c9.3955-20.9053,16.7793-40.1631,28-59c9.999-15.998,20.001-32.002,30-48c6.7314-3.6152,19.5645-2.7148,28-5
			c23.998-7.333,48.0029-14.667,72-22c82.3926-32.0732,160.8447-71.6113,206-141c22.1953-34.1074,45.7061-118.2793-6-138
			c-46.2402-17.6357-120.6641,38.7744-145,56c-72.9727,51.6494-124.7109,124.875-176,198c-13.665,22.3311-27.335,44.6689-41,67
			c-18.9941,23.7393-48.1787,42.9395-71,63c-33.9727,29.8633-70.7881,57.4922-111,81c-7.9541,4.6504-40.0889,22.6279-48,9
			c-9.291-27.7217,53.8271-93.4902,67-111c52.3281-72.9922,104.6719-146.0068,157-219c13.6865-19.6875,55.7773-56.2832,59-80
			c-6.8281-3.8389-29.668-11.1699-37-9c-25.9971,36.9961-52.0029,74.0039-78,111c-38.9961,53.3281-78.0039,106.6719-117,160
			c-8.999,9.332-18.001,18.668-27,28c-21.6221,27.7227-42.6035,54.1055-70,76c-30.6514,24.4961-56.7764,46.7734-97,63
			c-10.3223,4.1641-32.4917,14.2217-48,8c-36.521-13.5195,22.2251-102.1055,32-116c56.2715-79.9873,125.7285-149.7441,194-218
			c19.2197-19.2148,72.4971-52.2539,71-84c-40.3828-45.1533-90.9346,70.8936-151,59c-31.417-6.2207-21.1875-50.8926-47-63
			c-19.4126-5.8682-27.2949,14.833-34,26c-19.998,32.6631-40.002,65.3369-60,98c-55.4409,87.9854-126.4063,191.3574-206,255
			c-24.5845,19.6582-54.6299,55.7021-95,57c-10.5522-22.7305,34.3569-82.585,44-98c53.9946-86.9912,108.0054-174.0088,162-261
			c22.7158-36.9326,73.7603-108.0654,8-139c0-1,0-2,0-3c118.5894-74.1084,217.1104-177.3398,300-287
			c65.3936-86.5127,127.1006-186.6543,248-217c49.0303-12.3066,79.6279,16.6514,61,60c-12.4531,28.9795-70.9355,91.79-100,103
			c-0.667,1-1.333,2-2,3c7.3623,12.1855,20.5635,21.6787,31,31c38.7734-19.8994,134.0654-119.2256,107-190
			c-26.0508-68.1201-129.9561-40.1006-178-12c-81.7959,47.8428-132.3721,112.5557-188,186
			c-51.2881,67.7148-123.2578,151.2393-189,204c-45.6187,36.6104-112.1992,109.5303-191,108c-0.333-0.667-0.6665-1.333-1-2
			c40.9961-61.6602,82.0044-123.3398,123-185c17.0181-25.9219,47.9941-84.8086,70-102c22.3311-6.333,44.6689-12.667,67-19
			c36.0332-14.1865,67.9307-32.8037,96-55c24.1338-19.084,85.1709-91.8242,40-128c-31.9365-25.5771-76.8457,6.2813-97,21
			c-34.9058,25.4912-68.2114,58.4346-95,92c-10.6592,13.3555-25.77,41.4785-42,48c-8.9717,3.6055-68.9639,4.9404-79,1
			c-0.6665,0-1.3335,0-2,0c6.2988-13.2285,56.1558-25.9678,71-35c18.0762-10.999,21.8608-31.835,26-57
			c2.8516-17.333-3.4756-35.8457-8-47c-20.0562-49.4424-70.7949-62.1064-133-43c-109.1216,33.5166-214.4829,113.2549-261,210
			c-16.5933,34.5107-36.7017,95.7725-20,147c19.8545,60.8955,82.9014,79.835,150,51c37.0625-15.9268,57.0454-44.5371,75-80
			c7.1807-14.1816,26.9805-47.3232,21-68c0-0.667,0-1.333,0-2c-14.665,0-29.3345,0-44,0c-0.6665,12.665-1.333,25.335-2,38
			c-6.6621,29.7598-26.3115,58.8516-49,73c-45.96,28.6621-105.1177,26.3623-120-29c-10.6558-39.6396,6.7129-82.8594,20-109
			c40.7349-80.1377,106.8779-128.1904,187-169c24.1523-12.3018,82.3584-42.0859,119-29c20.3691,7.2744,36.3032,44.2598,22,72
			c-10.5278,20.418-93.1104,34.7832-111,64c-32.7251,53.4482,61.8379,56.1943,103,56c0.667,1,1.3335,2,2,3
			c-27.6636,41.6621-55.3359,83.3379-83,125c-64.6602,100.9902-129.3398,202.0098-194,303
			c-43.6621,72.3262-87.3374,144.6738-131,217c-30.2783,50.7188-55.2407,104.2578-91,149c-50.4165,63.083-169.2441,117.3496-257,50
			c-90.6855-69.5986-40.7285-225.6787,30-278c26.1006-19.3076,68.3208-36.7949,109-19c29.8438,13.0557,55.3311,54.8828,73,81
			c1,0,2.0005,0,3,0c11.6499-8.6475,29.498-19.3779,36-33c-6.6836-16.2891-20.124-25.8799-33-36
			c-45.6382-35.8701-99.6074-73.5693-175-42c-73.2422,30.6689-158.3027,160.7588-121,276c13.5566,41.8809,43.3223,74.0596,78,95
			c71.6235,43.251,173.3311,25.585,232-16c67.4824-47.8311,100.646-119.7217,144-192c34.3301-56.3271,68.6704-112.6719,103-169
			c38.9961-60.9941,78.0039-122.0059,117-183c7.5586-3.4482,17.2827,0.6514,28-1c31.2168-4.8105,83.9355-7.2998,96,16
			c-2.1611,27.9131-43.9209,80.0635-58,103c-51.9946,81.9922-104.0049,164.0078-156,246c-12.7773,20.3379-63.2515,108.2471-26,137
			c49.0029,37.8232,119.042-21.5947,148-44c116.6323-90.2422,190.1968-227.6875,272-353c0.667,0,1.333,0,2,0
			c7.999,7.333,16.001,14.667,24,22c10.333,3.666,20.668,7.334,31,11c0.333,0.667,0.667,1.333,1,2
			c-20.998,22.6641-42.002,45.3359-63,68c-34.8604,43.501-69.9946,84.0342-100,133c-15.3726,25.0869-44.0791,66.5332-32,110
			c16.4609,59.2334,101.9985,41.0771,143,17c16.332-10.999,32.668-22.001,49-33c1.9736-1.5967,1.3652-1.3564,5-2
			c13.3711,36.6494,43.708,53.0156,90,36c42.25-15.5303,109.0771-66.5654,135-99c1.333,0,2.667,0,4,0
			c-1.333,12.999-2.667,26.001-4,39c7.5908,44.4697,50.4512,60.1367,99,44c55.2168-18.3525,103.4512-60.1582,143-96
			c13.2295-11.9893,32.0537-39.1475,50-44c-5.3877,59.0234-1.8408,101.5625,56,113c0,0.333,0,0.667,0,1
			c-10.9619,15.5127-54.8545,32.2295-73,43c-56.9941,32.3301-114.0059,64.6699-171,97c-50.5439,30.249-96.7178,62.29-141,98
			c-17.998,19.3311-36.002,38.6689-54,58c-5.333,6.999-10.667,14.001-16,21c-31.6631,3.666-63.3369,7.334-95,11
			c-80.0283,14.6172-161.6338,19.6475-237,40c-71.8535,19.4043-142.9653,35.1846-207,62c-44.2607,18.5352-88.7217,50.5791-141,58
			c-0.333,1.333-0.6665,2.667-1,4c19.0811,6.1621,67.5942,34.5244,97,25c15.665-10.666,31.335-21.334,47-32
			c36.2827-21.4893,78.6641-40.082,120-55c82.6343-29.8232,173.0815-41.2441,271-58c37.9834-6.5,80.4053-14.3896,122-14
			c-4.999,14.332-10,28.668-15,43c-13.8281,46.9746-0.585,101.1045,41,109c29.5107,5.6025,57.2578-18.5342,74-29
			c47.8008-29.8809,87.124-66.5391,130-101c16.415-13.1934,33.7998-41.7041,56-47c42.9961-3.666,86.0049-7.334,129-11
			c85.6582-10.999,171.3418-22.001,257-33c92.8828-18.0332,187.2988-27.9502,276-52c138.4463-37.5371,271.752-72.6494,397-119
			c97.792-36.1895,177.3506-76.1299,227-160C2749.0918,951.249,2767.9268,906.1582,2756.376,862.7979z M2161.376,673.7979
			c44.5107-60.3623,94.8271-106.1816,162-144c11.332-4.333,22.668-8.667,34-13c5.333,0.333,10.667,0.667,16,1
			c16.7725,28.3672-13.7383,76.5664-25,92c-52.3438,71.7393-140.9336,100.4014-233,133c-1.333,0-2.667,0-4,0
			C2114.9805,722,2149.1309,690.4043,2161.376,673.7979z M1475.376,752.7979c43.124-57.1777,85.7344-105.8955,148-144
			c16.7949-10.2773,36.1582-14.6641,54-25c4,0,8.001,0,12,0c1,1.333,2,2.667,3,4c7.3691,37.8516-15.083,68.7012-30,89
			c-43.7832,59.5801-140.5225,115.1289-226,132c-0.666-0.667-1.333-1.333-2-2
			C1448.041,788.7998,1461.7109,770.7959,1475.376,752.7979z M1008.376,164.7979c15.665-15.332,31.335-30.668,47-46
			c12.665-7.999,25.335-16.001,38-24c2,0,4,0,6,0c2.9512,14.0195-11.3848,25.6104-18,34c-22.0059,27.9111-59.4619,57.9014-98,68
			c-0.333,0-0.6665,0-1,0C982.9048,186.3867,1000.7031,172.501,1008.376,164.7979z M1630.376,976.7979
			c-39.4004-33.1377,30.6367-117.915,44-136c24.5674-33.2471,52.0938-63.5547,77-96c45.0605-58.7002,92.3184-118.1045,156-158
			c21.4688-13.4502,43.3203-17.707,69-29c12.1846-0.1133,19.999,1.4502,28,4c25.5771,37.0508-7.7832,91.0225-24,113
			c-31.9971,39.3291-64.0029,78.6709-96,118c-39.0244,51.5986-73.9033,101.1934-127,139
			C1741.5273,943.083,1657.8711,999.9219,1630.376,976.7979z M1334.376,1385.7979c-31.333,24.8545-60.8486,50.2393-95,73
			c-9.5879,6.3906-31.9912,25.9766-45,23c-14.7686-9.125-4.207-45.8701,0-58c5.4678-15.7646,13.1377-45.9619,27-53
			c42.6621-3.666,85.3379-7.334,128-11c3.666,0,7.334,0,11,0c0.333,1,0.667,2,1,3
			C1352.377,1370.4639,1343.375,1378.1318,1334.376,1385.7979z M1406.376,1319.7979c-50.9951,3.666-102.0049,7.334-153,11
			c-0.333-1.333-0.667-2.667-1-4c44.748-61.4199,116.4053-99.1436,183-139c60.6611-35.6631,121.3398-71.3369,182-107
			c21.998-12.665,44.002-25.335,66-38c1,0,2,0,3,0c-8.4023,22.918-45.8682,52.5176-63,70c-47.417,48.3877-93.1553,101.2949-146,144
			C1458.7803,1271.8262,1429.418,1313.9248,1406.376,1319.7979z M2683.376,970.7979c-46.1318,63.3926-110.748,92.9355-189,125
			c-145.0283,59.4277-304.5674,96.8604-470,138c-66.7432,16.5977-134.4316,21.9971-204,36c-72.1328,14.5195-147.8389,15.8389-224,30
			c-35.3301,4-70.6699,8.001-106,12c-0.333-0.333-0.667-0.667-1-1c3.4961-10.9189,34.3594-36.2334,44-44
			c30.6641-30.9971,61.3369-62.0029,92-93c40.2393-40.2393,80.1338-82.5625,115-128c18.3311-23.6641,36.6689-47.3359,55-71
			c67.3271-43.6621,134.6738-87.3379,202-131c0.667,0.333,1.334,0.667,2,1c-6.999,17.665-14.001,35.335-21,53
			c-15.8809,54.7246,14.167,99.1787,75,86c46.2891-10.0273,86.9463-35.1172,121-59c140.6709-98.6563,271.251-224.7949,344-391
			c21.0674,1.1172,44.0791,5.1855,68,8c-5.5537,17.166-51.6826,53.4658-65,70c-43.3662,53.8408-90.1035,101.8994-128,162
			c-14.9795,23.7578-50.3525,73.3945-38,115c11.2227,37.7988,62.2744,66.4004,110,45c53.6494-24.0566,67.8564-88.4111,124-112
			c53.207-22.3545,112.9346,1.0195,124,51C2722.4502,913.7822,2699,949.3291,2683.376,970.7979z M1477.376,473.7979
			c4.8086,1.3398,10.4854,2.6367,16,1c17.7852-6.5342,38.6133-51.1074,1-50
			C1476.1816,435.7695,1461.3105,453.6172,1477.376,473.7979z"/>
	</g>
</g>
</svg>
